# xmcd
#
# Track frame offsets:
#	150
#	13764
#	26886
#	38721
#	52256
#	64930
#	80579
#	91212
#	103095
#	119916
#	161647
#	177567
#	199381
#	208683
#	219922
#	236672
#
# Disc length: 3486 seconds
#
# Revision: 1
# Processed by: cddbd v1.5.1PL0 Copyright (c) Steve Scherf et al.
# Submitted via: audiograbber 1.83.01
#
DISCID=f30d9c10
DTITLE=Various Artist - Ballad Cd1
DYEAR=1900
DGENRE=
TTITLE0=Percy Sledge - My Spesial Prayer
TTITLE1=Ben E. King - Spanish Harlem
TTITLE2=Wilson Pickett - Down To My Last Heartbreak
TTITLE3=Martha and The Vandellas - Nowhere To Run
TTITLE4=Gladys Knight and The Pips - Letter Full Of Tears
TTITLE5=Al Wilson - Show And Tell
TTITLE6=Sam And Dave - Soul Sister,Brown Sugar
TTITLE7=The Fantastics - Something Old, Something New
TTITLE8=Solomon Burke - Hold On I'm Coming
TTITLE9=James Brown - It's A Man's Man's Man's World
TTITLE10=Luther Ingram - (If Loving You Is Wrong) I Don't Want To Be Right
TTITLE11=Eddie Floyd - On A Saturday Night
TTITLE12=Gladys Knight and The Pips - Every Beat Of My Heart
TTITLE13=The Isley Brothers - Don't Be Jealous
TTITLE14=Lou Rawls - You'll Never Find Another Love Like Mine
TTITLE15=Rose Royce - Love Don't Live Here Anymore
EXTD=
EXTT0=
EXTT1=
EXTT2=
EXTT3=
EXTT4=
EXTT5=
EXTT6=
EXTT7=
EXTT8=
EXTT9=
EXTT10=
EXTT11=
EXTT12=
EXTT13=
EXTT14=
EXTT15=
PLAYORDER=
